name analog
datacolumns 19
datarows 42
range 0.0 0.0205
endheader
time	ground_force_vx	ground_force_vy	ground_force_vz	ground_force_px	ground_force_py	ground_force_pz	l_ground_force_vx	l_ground_force_vy	l_ground_force_vz	l_ground_force_px	l_ground_force_py	l_ground_force_pz	ground_torque_x	ground_torque_y	ground_torque_z	l_ground_torque_x	l_ground_torque_y	l_ground_torque_z
0.0	-0.0	-0.0	-0.0	2.5890188217163086	12.121734619140623	-276.0139465332031	-0.8203404545783997	-12.961441040039062	-489.3791809082031	-0.0	-0.0	-0.0	-0.0	-0.0	-0.0	170374.609375	-20863.060546875	-2851.62353515625
0.0005	-0.0	-0.0	-0.0	2.3400511741638184	12.279436111450195	-275.2991943359375	-0.9317401647567748	-13.25894832611084	-488.9434814453125	-0.0	-0.0	-0.0	-0.0	-0.0	-0.0	170554.921875	-20760.033203125	-2911.1064453125
0.001	-0.0	-0.0	-0.0	2.5338387489318848	12.141884803771973	-274.289794921875	-1.142147421836853	-13.11577606201172	-490.1652221679688	-0.0	-0.0	-0.0	-0.0	-0.0	-0.0	170539.890625	-20655.240234375	-2955.7138671875
0.0015	-0.0	-0.0	-0.0	2.342617988586426	11.821340560913086	-275.5328369140625	-1.1641383171081543	-13.292667388916016	-489.1614379882813	-0.0	-0.0	-0.0	-0.0	-0.0	-0.0	170392.203125	-20547.720703125	-3078.16162109375
0.002	-0.0	-0.0	-0.0	2.1972780227661133	11.774948120117188	-276.18670654296875	-1.707905650138855	-13.149224281311035	-490.4275512695313	-0.0	-0.0	-0.0	-0.0	-0.0	-0.0	170055.109375	-20599.271484375	-3178.60693359375
0.0025	-0.0	-0.0	-0.0	2.375771999359131	12.36575984954834	-276.01873779296875	-1.9411003589630127	-13.21531581878662	-490.55804443359375	-0.0	-0.0	-0.0	-0.0	-0.0	-0.0	170438.25	-20554.005859375	-3289.906494140625
0.003	-0.0	-0.0	-0.0	2.619968175888061	11.910639762878418	-274.7181701660156	-1.885568737983704	-13.149584770202637	-489.98974609375	-0.0	-0.0	-0.0	-0.0	-0.0	-0.0	170607.640625	-20368.564453125	-3356.717529296875
0.0035	-0.0	-0.0	-0.0	1.977039456367493	11.97624683380127	-274.6077575683594	-2.017585039138794	-13.225589752197266	-490.1192932128906	-0.0	-0.0	-0.0	-0.0	-0.0	-0.0	170958.96875	-20463.697265625	-3189.872802734375
0.004	-0.0	-0.0	-0.0	2.3104946613311768	11.83061408996582	-273.90252685546875	-1.974545121192932	-13.159931182861328	-492.6136169433594	-0.0	-0.0	-0.0	-0.0	-0.0	-0.0	171255.375	-20307.7421875	-3271.133056640625
0.0045000000000000005	-0.0	-0.0	-0.0	2.4086837768554688	11.95847225189209	-274.5502014160156	-1.7972187995910645	-13.159931182861328	-492.1744689941406	-0.0	-0.0	-0.0	-0.0	-0.0	-0.0	171394.640625	-20399.27734375	-3214.925048828125
0.005	-0.0	-0.0	-0.0	2.343456983566284	11.958813667297363	-274.9638977050781	-1.80700159072876	-13.113856315612791	-492.4859008789063	-0.0	-0.0	-0.0	-0.0	-0.0	-0.0	171548.90625	-20794.158203125	-3097.41357421875
0.0055	-0.0	-0.0	-0.0	2.295359373092652	11.991658210754396	-275.2894287109375	-1.41937255859375	-13.271419525146484	-494.96820068359375	-0.0	-0.0	-0.0	-0.0	-0.0	-0.0	172004.265625	-20530.474609375	-3117.645263671875
0.006	-0.0	-0.0	-0.0	2.392106056213379	11.84671688079834	-274.90264892578125	-1.6621397733688354	-13.025084495544434	-493.9022521972656	-0.0	-0.0	-0.0	-0.0	-0.0	-0.0	172163.640625	-20449.185546875	-3127.02783203125
0.006500000000000001	-0.0	-0.0	-0.0	2.1247658729553223	12.032604217529297	-274.7420654296875	-1.555103421211243	-13.062559127807615	-495.3536071777344	-0.0	-0.0	-0.0	-0.0	-0.0	-0.0	172472.609375	-20574.517578125	-3097.345703125
0.007	-0.0	-0.0	-0.0	2.279169797897339	11.919042587280272	-273.9735107421875	-1.5316896438598633	-13.415989875793455	-495.3532104492188	-0.0	-0.0	-0.0	-0.0	-0.0	-0.0	172439.546875	-20420.021484375	-3065.8759765625
0.0075	-0.0	-0.0	-0.0	2.497894287109375	11.894368171691896	-274.6513671875	-1.7804129123687744	-13.22463035583496	-496.7493591308594	-0.0	-0.0	-0.0	-0.0	-0.0	-0.0	172698.4375	-20629.1640625	-3175.74658203125
0.008	-0.0	-0.0	-0.0	2.376438856124878	11.84682559967041	-274.77398681640625	-1.404048204421997	-13.23974323272705	-496.6814880371094	-0.0	-0.0	-0.0	-0.0	-0.0	-0.0	172915.265625	-20501.931640625	-3240.60009765625
0.0085	-0.0	-0.0	-0.0	2.4335012435913086	12.3395357131958	-274.4898681640625	-1.6939079761505127	-13.424896240234377	-496.5548706054688	-0.0	-0.0	-0.0	-0.0	-0.0	-0.0	172980.0625	-20333.33203125	-3167.842041015625
0.009000000000000001	-0.0	-0.0	-0.0	2.337254285812378	12.32492733001709	-273.8416748046875	-1.8711252212524412	-13.33657455444336	-497.7630615234375	-0.0	-0.0	-0.0	-0.0	-0.0	-0.0	173270.3125	-20353.443359375	-3327.0908203125
0.0095	-0.0	-0.0	-0.0	2.4086837768554688	12.00754165649414	-273.1350402832031	-1.6210283041000366	-13.456993103027344	-497.3503112792969	-0.0	-0.0	-0.0	-0.0	-0.0	-0.0	173534.625	-20307.69921875	-3343.150634765625
0.01	-0.0	-0.0	-0.0	2.5094120502471924	12.032604217529297	-273.5150756835937	-1.9273064136505127	-13.344399452209473	-499.0952758789063	-0.0	-0.0	-0.0	-0.0	-0.0	-0.0	173463.640625	-20356.037109375	-3394.5966796875
0.0105	-0.0	-0.0	-0.0	2.262204170227051	12.17895221710205	-272.4805603027344	-2.2177696228027344	-13.440113067626951	-498.9677429199219	-0.0	-0.0	-0.0	-0.0	-0.0	-0.0	173516.625	-20425.38671875	-3384.13623046875
0.011	-0.0	-0.0	-0.0	2.0837345123291016	11.92453384399414	-273.2350158691406	-2.1857004165649414	-13.216323852539062	-499.2868041992188	-0.0	-0.0	-0.0	-0.0	-0.0	-0.0	173480.546875	-20375.3515625	-3308.343505859375
0.0115	-0.0	-0.0	-0.0	2.2876410484313965	12.179061889648438	-274.1174011230469	-1.8949353694915767	-13.859220504760742	-499.0348510742188	-0.0	-0.0	-0.0	-0.0	-0.0	-0.0	173774.5	-20110.4140625	-3248.95166015625
0.012	-0.0	-0.0	-0.0	2.3059158325195312	11.95559787750244	-271.2421875	-2.072284460067749	-13.650997161865234	-500.1387634277344	-0.0	-0.0	-0.0	-0.0	-0.0	-0.0	173740.109375	-20210.546875	-3380.7099609375
0.0125	-0.0	-0.0	-0.0	2.26197361946106	12.012755393981934	-271.4229431152344	-2.2885003089904785	-13.771259307861328	-500.2087707519531	-0.0	-0.0	-0.0	-0.0	-0.0	-0.0	174087.375	-20031.6484375	-3357.162109375
0.013000000000000001	-0.0	-0.0	-0.0	1.789926528930664	11.739310264587402	-272.3243713378906	-1.9767076969146729	-13.626500129699709	-500.4063720703125	-0.0	-0.0	-0.0	-0.0	-0.0	-0.0	173767.90625	-20284.306640625	-3350.777099609375
0.0135	-0.0	-0.0	-0.0	2.6763153076171875	12.2313814163208	-269.4981689453125	-2.1225032806396484	-13.57645034790039	-500.709228515625	-0.0	-0.0	-0.0	-0.0	-0.0	-0.0	173939.75	-20010.029296875	-3395.085205078125
0.014	-0.0	-0.0	-0.0	2.1095235347747803	12.116363525390623	-271.2421875	-2.24306583404541	-13.399710655212402	-500.658203125	-0.0	-0.0	-0.0	-0.0	-0.0	-0.0	173953.515625	-20103.6640625	-3418.507080078125
0.0145	-0.0	-0.0	-0.0	1.731613039970398	11.88061809539795	-271.2421875	-2.2686517238616943	-13.740520477294922	-499.860595703125	-0.0	-0.0	-0.0	-0.0	-0.0	-0.0	174071.015625	-20013.791015625	-3401.74755859375
0.015	-0.0	-0.0	-0.0	2.114656448364258	11.733834266662598	-270.2871398925781	-2.008761405944824	-13.63298797607422	-499.2101135253906	-0.0	-0.0	-0.0	-0.0	-0.0	-0.0	174267.359375	-20016.234375	-3418.27880859375
0.0155	-0.0	-0.0	-0.0	1.9264549016952517	11.56045913696289	-269.2281188964844	-2.060138702392578	-13.63877010345459	-499.7600708007813	-0.0	-0.0	-0.0	-0.0	-0.0	-0.0	174144.90625	-20035.724609375	-3358.927978515625
0.016	-0.0	-0.0	-0.0	2.225651741027832	11.8589506149292	-270.2882080078125	-2.332283735275269	-13.51321792602539	-500.4802856445313	-0.0	-0.0	-0.0	-0.0	-0.0	-0.0	174219.34375	-20153.767578125	-3357.12744140625
0.0165	-0.0	-0.0	-0.0	2.5246541500091557	11.417614936828612	-270.0590515136719	-2.040348052978516	-13.544486045837402	-501.0325927734375	-0.0	-0.0	-0.0	-0.0	-0.0	-0.0	174074.328125	-19972.603515625	-3426.7578125
0.017	-0.0	-0.0	-0.0	1.940015435218811	11.73408031463623	-269.59967041015625	-2.2751386165618896	-13.63274383544922	-501.135009765625	-0.0	-0.0	-0.0	-0.0	-0.0	-0.0	174401.328125	-19955.076171875	-3444.332275390625
0.0175	-0.0	-0.0	-0.0	2.1991586685180664	11.827364921569824	-269.12310791015625	-2.31162428855896	-13.689861297607422	-501.5048522949219	-0.0	-0.0	-0.0	-0.0	-0.0	-0.0	174521.265625	-19950.142578125	-3495.0166015625
0.018000000000000002	-0.0	-0.0	-0.0	2.14105224609375	11.912458419799805	-269.12310791015625	-2.2851810455322266	-13.518158912658691	-501.73089599609375	-0.0	-0.0	-0.0	-0.0	-0.0	-0.0	174504.453125	-20020.880859375	-3437.3056640625
0.0185	-0.0	-0.0	-0.0	2.055542230606079	11.819704055786133	-269.0005187988281	-2.3735294342041016	-13.756616592407228	-501.2778015136719	-0.0	-0.0	-0.0	-0.0	-0.0	-0.0	174567.4375	-19837.5390625	-3545.619873046875
0.019	-0.0	-0.0	-0.0	2.055396795272827	11.939922332763672	-268.1058044433594	-2.3110806941986084	-13.610699653625488	-500.9463806152344	-0.0	-0.0	-0.0	-0.0	-0.0	-0.0	174341.328125	-19813.869140625	-3486.194091796875
0.0195	-0.0	-0.0	-0.0	2.4361720085144043	11.713655471801758	-268.6343994140625	-2.395191192626953	-13.976933479309082	-502.08001708984375	-0.0	-0.0	-0.0	-0.0	-0.0	-0.0	174345.703125	-19786.37109375	-3455.18505859375
0.02	-0.0	-0.0	-0.0	2.399220466613769	11.949776649475098	-269.12310791015625	-2.12485671043396	-13.839853286743164	-501.6255187988281	-0.0	-0.0	-0.0	-0.0	-0.0	-0.0	174265.125	-19786.1953125	-3524.69091796875
0.0205	-0.0	-0.0	-0.0	2.1470701694488525	12.180152893066406	-270.18267822265625	-2.417999029159546	-13.866504669189451	-501.0166015625	-0.0	-0.0	-0.0	-0.0	-0.0	-0.0	174570.125	-19744.447265625	-3506.955322265625
